<?xml version="1.0" standalone="no"?>
<!DOCTYPE svg PUBLIC "-//W3C//DTD SVG 20010904//EN"
 "http://www.w3.org/TR/2001/REC-SVG-20010904/DTD/svg10.dtd">
<svg version="1.0" xmlns="http://www.w3.org/2000/svg"
  width="300" height="300"  viewBox="0 0 1180 1180" preserveAspectRatio="xMidYMid meet">
<g transform="translate(-550 1180) scale(0.12 -0.12)" fill="red"  stroke="none">
<path d="M12015 7563 c-796 -31 -1468 -129 -1910 -278 -306 -104 -574 -233
-1030 -500 -550 -321 -700 -394 -1370 -659 -973 -386 -1180 -482 -1480 -687
-114 -78 -265 -196 -265 -209 0 -4 12 -10 28 -13 15 -2 68 -17 117 -32 325
-98 780 -155 1125 -141 381 16 609 63 1150 236 499 160 727 217 1060 264 305
43 418 50 790 51 340 0 392 -3 788 -40 44 -4 52 -3 52 12 0 25 93 195 168 308
137 205 369 456 565 612 502 401 1160 700 2017 919 204 53 241 64 209 64 -8 0
-111 11 -229 24 -474 54 -904 77 -1390 74 -179 -1 -356 -3 -395 -5z"/>
<path  d="M8341 5204 c-204 -55 -351 -243 -351 -449 0 -249 216 -465 465 -465
295 0 524 291 450 573 -66 253 -320 407 -564 341z m296 -79 c88 -52 100 -157
18 -157 -28 0 -119 55 -140 85 -20 28 -19 56 2 79 23 25 69 23 120 -7z m171
-171 c48 -33 17 -114 -44 -114 -25 0 -64 43 -64 69 0 52 61 78 108 45z"/>
<path d="M5638 4877 c-239 -334 -390 -703 -464 -1135 -31 -184 -31 -178 9
-185 17 -3 140 -26 272 -52 675 -130 1367 -225 1940 -265 254 -18 772 -24 995
-11 658 37 1166 154 1549 357 338 179 614 453 750 745 68 145 133 349 111 349
-6 0 -102 -14 -215 -30 -444 -66 -847 -147 -1168 -236 -355 -99 -604 -151
-862 -179 -178 -20 -550 -23 -735 -6 -559 53 -1115 213 -1633 472 -109 55
-370 199 -453 250 l-30 19 -66 -93z"/>
</g>
</svg>
